<?xml version="1.0" encoding="UTF-8" standalone="no"?>
<!-- Generator: Adobe Illustrator 15.0.0, SVG Export Plug-In . SVG Version: 6.00 Build 0)  -->

<svg
   xmlns:dc="http://purl.org/dc/elements/1.1/"
   xmlns:cc="http://creativecommons.org/ns#"
   xmlns:rdf="http://www.w3.org/1999/02/22-rdf-syntax-ns#"
   xmlns:svg="http://www.w3.org/2000/svg"
   xmlns="http://www.w3.org/2000/svg"
   xmlns:sodipodi="http://sodipodi.sourceforge.net/DTD/sodipodi-0.dtd"
   xmlns:inkscape="http://www.inkscape.org/namespaces/inkscape"
   version="1.1"
   id="Layer_1"
   x="0px"
   y="0px"
   width="315px"
   height="315px"
   viewBox="0 0 315 315"
   enable-background="new 0 0 315 315"
   xml:space="preserve"
   sodipodi:docname="logo-blue-right.svg"
   inkscape:version="0.92.3 (2405546, 2018-03-11)"><metadata
   id="metadata875"><rdf:RDF><cc:Work
       rdf:about=""><dc:format>image/svg+xml</dc:format><dc:type
         rdf:resource="http://purl.org/dc/dcmitype/StillImage" /><dc:title></dc:title></cc:Work></rdf:RDF></metadata><defs
   id="defs873" /><sodipodi:namedview
   pagecolor="#ffffff"
   bordercolor="#666666"
   borderopacity="1"
   objecttolerance="10"
   gridtolerance="10"
   guidetolerance="10"
   inkscape:pageopacity="0"
   inkscape:pageshadow="2"
   inkscape:window-width="1366"
   inkscape:window-height="705"
   id="namedview871"
   showgrid="false"
   inkscape:zoom="1.7015873"
   inkscape:cx="157.5"
   inkscape:cy="157.5"
   inkscape:window-x="-8"
   inkscape:window-y="-8"
   inkscape:window-maximized="1"
   inkscape:current-layer="Layer_1" />
<path
   d="m 282.13735,128.463 c -2.233,0.067 -3.913,1.369 -4.511,3.566 -1.003,3.687 -1.98,7.382 -2.862,11.099 -0.708,2.987 0.51,5.009 3.461,5.885 2.167,0.643 4.363,1.192 6.559,1.735 0.723,0.18 1.023,0.55 1.112,1.284 0.464,3.8 -0.142,7.51 -0.88,11.21 -0.827,4.146 -2.173,8.122 -4.027,11.924 -0.671,1.377 -1.593,2.602 -2.398,3.897 -0.3,0.481 -0.696,0.479 -1.18,0.35 -2.187,-0.586 -4.388,-1.121 -6.567,-1.733 -3.015,-0.847 -5.358,0.419 -6.258,3.62 -0.986,3.508 -1.907,7.035 -2.813,10.565 -0.798,3.106 0.556,5.34 3.723,6.194 2.505,0.677 5.002,1.4 7.535,1.954 2.352,0.514 4.446,-0.326 6.409,-1.597 3.981,-2.578 6.791,-6.205 9.339,-10.118 2.27,-3.486 4.174,-7.146 5.739,-10.988 1.658,-4.071 2.863,-8.281 3.682,-12.602 0.995,-5.248 1.469,-10.542 1.104,-15.875 -0.305,-4.454 -0.871,-8.869 -2.854,-12.977 -1.43,-2.963 -3.521,-5.005 -6.866,-5.665 -1.954,-0.386 -3.861,-1.008 -5.793,-1.511 -0.587,-0.151 -1.185,-0.266 -1.654,-0.217"
   id="path846"
   inkscape:connector-curvature="0"
   style="fill:#4c78bc" />
<path
   d="m 242.18735,166.191 c 0.138,3.803 0.829,7.495 2.039,11.105 0.261,0.779 0.584,0.798 1.227,0.525 1.086,-0.458 2.188,-0.88 3.305,-1.255 0.488,-0.164 0.563,-0.382 0.405,-0.825 -1.481,-4.162 -2.039,-8.462 -1.784,-12.859 0.166,-2.865 0.716,-5.674 1.65,-8.388 1.595,-4.638 4.059,-8.759 7.494,-12.281 0.865,-0.887 1.751,-1.749 2.745,-2.496 0.353,-0.266 0.591,-0.497 0.139,-0.999 -0.862,-0.959 -1.632,-2.005 -2.386,-3.054 -0.306,-0.426 -0.532,-0.408 -0.882,-0.114 -2.924,2.46 -5.473,5.234 -7.617,8.423 -2.899,4.314 -4.751,9.027 -5.733,14.085 -0.519,2.672 -0.716,5.399 -0.602,8.133"
   id="path848"
   inkscape:connector-curvature="0"
   style="fill:#4c78bc" />
<path
   d="m 260.28735,164.427 c 0.034,-5.243 1.928,-9.912 6.126,-13.552 0.463,-0.401 0.593,-0.659 0.135,-1.18 -0.825,-0.938 -1.587,-1.937 -2.324,-2.947 -0.297,-0.406 -0.46,-0.418 -0.842,-0.095 -2.148,1.814 -3.963,3.903 -5.31,6.375 -3.18,5.834 -3.791,11.922 -1.8,18.275 0.214,0.686 0.444,0.861 1.133,0.563 1.158,-0.503 2.35,-0.932 3.545,-1.342 0.436,-0.148 0.427,-0.349 0.293,-0.698 -0.633,-1.654 -0.868,-3.383 -0.956,-5.399"
   id="path850"
   inkscape:connector-curvature="0"
   style="fill:#4c78bc" />
<path
   d="m 56.065352,147.41 c 0.092,-5.975 41.578,-10.184 92.662998,-9.402 51.084,0.783 92.422,6.262 92.331,12.235 L 57.357352,147.43 c 0,0.001 -1.301,0.597 -1.292,-0.02"
   id="path852"
   inkscape:connector-curvature="0"
   style="fill:#4c78bc" />
<path
   d="M 210.37735,130.729 96.444352,128.985 c 4.810998,-21.697 15.110998,-54.199 32.400998,-48.732 34.432,10.888 67.807,0.572 81.532,50.476"
   id="path854"
   inkscape:connector-curvature="0"
   style="fill:#4c78bc" />
<circle
   stroke-miterlimit="10"
   cx="-185.19235"
   cy="180.73399"
   r="20.940001"
   id="circle856"
   transform="scale(-1,1)"
   style="fill:none;stroke:#4c78bc;stroke-width:3;stroke-miterlimit:10" />
<path
   d="m 113.85435,177.446 c -0.081,5.255 4.114,9.581 9.37,9.661 5.255,0.081 9.58,-4.114 9.66,-9.37 0.081,-5.255 -4.113,-9.58 -9.37,-9.661 -5.255,-0.08 -9.58,4.115 -9.66,9.37"
   id="path858"
   inkscape:connector-curvature="0"
   style="fill:#4c78bc" />
<path
   stroke-miterlimit="10"
   d="m 221.79635,190.088 c -0.586,38.285 -32.098,68.847 -70.383,68.261 -38.285,-0.587 -68.845998,-32.099 -68.259998,-70.384 0.228,-14.836 5.101,-28.51 13.211,-39.662 l 113.441998,1.736 c 7.765,11.397 12.217,25.213 11.99,40.049 z"
   id="path860"
   inkscape:connector-curvature="0"
   style="fill:none;stroke:#4c78bc;stroke-width:8;stroke-miterlimit:10" />
<path
   d="m 39.179352,155.844 c -0.815,-4.521 -2.623,-8.355 -7.93,-13.589 -6.058,-6.011 -8.097,-10.007 -9.036,-15.216 -0.887,-4.914 0.743,-7.136 4.182,-7.756 3.441,-0.62 5.743,0.894 6.629,5.807 l 1.348,7.47 10.221,-1.844 -1.224,-6.781 c -1.984,-11.007 -8.426,-16.34 -18.941,-14.444 -10.518,1.897 -14.8860003,9.179 -12.901,20.188 1.081,5.994 3.854,10.671 10.437,16.79 5.254,4.938 7.232,8.03 7.853,11.471 l 0.674,3.734 9.436,-1.701 z m 2.636,11.803 -10.418,1.879 1.879,10.417 10.418,-1.878 z"
   id="path862"
   inkscape:connector-curvature="0"
   style="fill:#4c78bc" />
<line
   x1="198.05035"
   y1="197.93201"
   x2="238.47835"
   y2="243.427"
   id="line864"
   style="fill:#4c78bc" />
<line
   stroke-miterlimit="10"
   x1="198.05035"
   y1="197.93201"
   x2="238.47835"
   y2="243.427"
   id="line866"
   style="fill:none;stroke:#4c78bc;stroke-width:3;stroke-miterlimit:10" />
<circle
   fill="none"
   stroke="#4C78BC"
   stroke-width="4"
   stroke-miterlimit="10"
   cx="157.382"
   cy="157.912"
   r="153"
   id="circle868" />
</svg>