<?xml version="1.0" encoding="utf-8"?>
<!-- Generator: Adobe Illustrator 15.0.0, SVG Export Plug-In . SVG Version: 6.00 Build 0)  -->
<!DOCTYPE svg PUBLIC "-//W3C//DTD SVG 1.1//EN" "http://www.w3.org/Graphics/SVG/1.1/DTD/svg11.dtd">
<svg version="1.1" id="Layer_1" xmlns="http://www.w3.org/2000/svg" xmlns:xlink="http://www.w3.org/1999/xlink" x="0px" y="0px"
	 width="315px" height="315px" viewBox="0 0 315 315" enable-background="new 0 0 315 315" xml:space="preserve">
<path fill="#FFFFFF" stroke="#FFFFFF" stroke-miterlimit="10" d="M28.351,128.463c2.233,0.067,3.913,1.369,4.511,3.566
	c1.003,3.687,1.98,7.382,2.862,11.099c0.708,2.987-0.51,5.009-3.461,5.885c-2.167,0.643-4.363,1.192-6.559,1.735
	c-0.723,0.18-1.023,0.55-1.112,1.284c-0.464,3.8,0.142,7.51,0.88,11.21c0.827,4.146,2.173,8.122,4.027,11.924
	c0.671,1.377,1.593,2.602,2.398,3.897c0.3,0.481,0.696,0.479,1.18,0.35c2.187-0.586,4.388-1.121,6.567-1.733
	c3.015-0.847,5.358,0.419,6.258,3.62c0.986,3.508,1.907,7.035,2.813,10.565c0.798,3.106-0.556,5.34-3.723,6.194
	c-2.505,0.677-5.002,1.4-7.535,1.954c-2.352,0.514-4.446-0.326-6.409-1.597c-3.981-2.578-6.791-6.205-9.339-10.118
	c-2.27-3.486-4.174-7.146-5.739-10.988c-1.658-4.071-2.863-8.281-3.682-12.602c-0.995-5.248-1.469-10.542-1.104-15.875
	c0.305-4.454,0.871-8.869,2.854-12.977c1.43-2.963,3.521-5.005,6.866-5.665c1.954-0.386,3.861-1.008,5.793-1.511
	C27.284,128.529,27.882,128.414,28.351,128.463"/>
<path fill="#FFFFFF" stroke="#FFFFFF" stroke-miterlimit="10" d="M68.301,166.191c-0.138,3.803-0.829,7.495-2.039,11.105
	c-0.261,0.779-0.584,0.798-1.227,0.525c-1.086-0.458-2.188-0.88-3.305-1.255c-0.488-0.164-0.563-0.382-0.405-0.825
	c1.481-4.162,2.039-8.462,1.784-12.859c-0.166-2.865-0.716-5.674-1.65-8.388c-1.595-4.638-4.059-8.759-7.494-12.281
	c-0.865-0.887-1.751-1.749-2.745-2.496c-0.353-0.266-0.591-0.497-0.139-0.999c0.862-0.959,1.632-2.005,2.386-3.054
	c0.306-0.426,0.532-0.408,0.882-0.114c2.924,2.46,5.473,5.234,7.617,8.423c2.899,4.314,4.751,9.027,5.733,14.085
	C68.218,160.73,68.415,163.457,68.301,166.191"/>
<path fill="#FFFFFF" stroke="#FFFFFF" stroke-miterlimit="10" d="M50.201,164.427c-0.034-5.243-1.928-9.912-6.126-13.552
	c-0.463-0.401-0.593-0.659-0.135-1.18c0.825-0.938,1.587-1.937,2.324-2.947c0.297-0.406,0.46-0.418,0.842-0.095
	c2.148,1.814,3.963,3.903,5.31,6.375c3.18,5.834,3.791,11.922,1.8,18.275c-0.214,0.686-0.444,0.861-1.133,0.563
	c-1.158-0.503-2.35-0.932-3.545-1.342c-0.436-0.148-0.427-0.349-0.293-0.698C49.878,168.172,50.113,166.443,50.201,164.427"/>
<path fill="#FFFFFF" stroke="#FFFFFF" stroke-miterlimit="10" d="M254.423,147.41c-0.092-5.975-41.578-10.184-92.663-9.402
	c-51.084,0.783-92.422,6.262-92.331,12.235l183.702-2.813C253.131,147.431,254.432,148.027,254.423,147.41"/>
<path fill="#FFFFFF" stroke="#FFFFFF" stroke-miterlimit="10" d="M100.111,130.729l113.933-1.744
	c-4.811-21.697-15.111-54.199-32.401-48.732C147.211,91.141,113.836,80.825,100.111,130.729"/>
<circle fill="none" stroke="#FFFFFF" stroke-width="4" stroke-miterlimit="10" cx="125.296" cy="180.734" r="20.94"/>
<path fill="#FFFFFF" stroke="#FFFFFF" stroke-miterlimit="10" d="M196.634,177.446c0.081,5.255-4.114,9.581-9.37,9.661
	c-5.255,0.081-9.58-4.114-9.66-9.37c-0.081-5.255,4.113-9.58,9.37-9.661C192.229,167.996,196.554,172.191,196.634,177.446"/>
<path fill="none" stroke="#FFFFFF" stroke-width="4" stroke-miterlimit="10" d="M88.692,190.088
	c0.586,38.285,32.098,68.847,70.383,68.261c38.285-0.587,68.846-32.099,68.26-70.384c-0.228-14.836-5.101-28.51-13.211-39.662
	l-113.442,1.736C92.917,161.436,88.465,175.252,88.692,190.088z"/>
<path fill="#FFFFFF" stroke="#FFFFFF" stroke-miterlimit="10" d="M271.309,155.844c0.815-4.521,2.623-8.355,7.93-13.589
	c6.058-6.011,8.097-10.007,9.036-15.216c0.887-4.914-0.743-7.136-4.182-7.756c-3.441-0.62-5.743,0.894-6.629,5.807l-1.348,7.47
	l-10.221-1.844l1.224-6.781c1.984-11.007,8.426-16.34,18.941-14.444c10.518,1.897,14.886,9.179,12.901,20.188
	c-1.081,5.994-3.854,10.671-10.437,16.79c-5.254,4.938-7.232,8.03-7.853,11.471l-0.674,3.734l-9.436-1.701L271.309,155.844z
	 M268.673,167.647l10.418,1.879l-1.879,10.417l-10.418-1.878L268.673,167.647z"/>
<line fill="#FFFFFF" stroke="#FFFFFF" stroke-miterlimit="10" x1="112.438" y1="197.932" x2="72.01" y2="243.427"/>
<line fill="none" stroke="#FFFFFF" stroke-width="4" stroke-miterlimit="10" x1="112.438" y1="197.932" x2="72.01" y2="243.427"/>
<circle fill="none" stroke="#FFFFFF" stroke-width="4" stroke-miterlimit="10" cx="157.382" cy="157.912" r="153"/>
</svg>
